<svg width="20" height="21" viewBox="0 0 20 21" fill="none" xmlns="http://www.w3.org/2000/svg">
<path d="M17.98 5.54C17.38 5.8 16.76 5.98 16.1 6.06C16.78 5.66 17.3 5.02 17.54 4.24C16.9 4.62 16.2 4.88 15.46 5.04C14.86 4.4 14 4 13.06 4C11.24 4 9.77998 5.48 9.77998 7.28C9.77998 7.54 9.79998 7.78 9.85998 8.02C7.13998 7.9 4.73998 6.58 3.11998 4.6C1.95998 6.68 3.25998 8.4 4.11998 8.98C3.59998 8.98 3.07998 8.82 2.63998 8.58C2.63998 10.2 3.77998 11.54 5.25998 11.84C4.93998 11.94 4.21998 12 3.77998 11.9C4.19998 13.2 5.41998 14.16 6.83998 14.18C5.71998 15.06 4.07998 15.76 1.97998 15.54C3.43998 16.48 5.15998 17.02 7.01998 17.02C13.06 17.02 16.34 12.02 16.34 7.7C16.34 7.56 16.34 7.42 16.32 7.28C17 6.78 17.56 6.2 17.98 5.54Z" fill="#333333"/>
</svg>
